<svg xmlns="http://www.w3.org/2000/svg" class="brandbuilder--brand-book-logo" style="width: 100%; height: 100%; position: relative;"><g><svg xmlns="http://www.w3.org/2000/svg" fill="currentColor" xmlns:xlink="http://www.w3.org/1999/xlink" version="1.1" viewBox="14.942936668680574 72 443.86868060609413 72" style="width: 100%; height: 100%; z-index: 5;"><g><g fill="currentColor" fill-rule="nonzero" transform="translate(14.942936668680574 72) scale(0.9756097157544096)"><svg xmlns="http://www.w3.org/2000/svg" fill="currentColor" width="75.4000015258789" height="73.80000305175781" viewBox="12.300000190734863 14.09999942779541 75.4000015258789 73.80000305175781"><circle cx="22.5" cy="24.3" r="10.2"/><circle cx="50" cy="24.3" r="10.2"/><circle cx="77.5" cy="24.3" r="10.2"/><circle cx="22.5" cy="51" r="10.2"/><circle cx="50" cy="51" r="10.2"/><circle cx="77.5" cy="51" r="10.2"/><circle cx="50" cy="77.7" r="10.2"/><circle cx="22.5" cy="77.7" r="10.2"/></svg></g><g fill="currentColor" transform="translate(109.04808927477465 133.488) scale(1)"><path fill-rule="nonzero" d="M50.256000-34.056000L45.504000-34.056000L37.008000-6.336000L28.512000-34.200000L24.336000-34.200000L15.840000-6.336000L7.056000-34.632000L2.448000-33.768000L13.752000 0.216000L17.712000 0.216000L26.352000-27.720000L34.920000 0.216000L38.952000 0.216000ZM88.046614-17.712000C88.046614-27.144000 83.582614-34.776000 74.294614-34.776000C65.942614-34.776000 59.606614-28.008000 59.606614-17.064000C59.606614-5.328000 66.014614 0.720000 74.942614 0.720000C80.198614 0.720000 84.590614-1.224000 87.974614-4.104000L87.254614-8.424000C83.726614-5.400000 79.766614-3.384000 75.230614-3.384000C68.390614-3.384000 64.502614-8.352000 64.358614-16.704000L88.046614-16.704000C88.046614-17.064000 88.046614-17.424000 88.046614-17.712000ZM83.150614-20.448000L64.574614-20.448000C65.510614-27.000000 68.966614-30.960000 74.294614-30.960000C79.766614-30.960000 82.646614-26.568000 83.150614-20.448000ZM129.581229-18.000000C129.581229-29.376000 123.317229-34.776000 115.901229-34.776000C111.149229-34.776000 107.837229-32.256000 105.389229-29.592000L105.389229-51.696000L100.637229-50.832000L100.637229-1.800000C104.453229-0.504000 108.269229 0.432000 113.021229 0.432000C122.453229 0.432000 129.581229-5.544000 129.581229-18.000000ZM124.757229-17.784000C124.757229-8.064000 120.005229-3.672000 113.237229-3.672000C109.781229-3.672000 107.549229-4.176000 105.389229-5.040000L105.389229-24.624000C108.413229-28.152000 111.581229-30.528000 115.397229-30.528000C120.797229-30.528000 124.757229-26.064000 124.757229-17.784000ZM148.507843-45.648000C148.507843-47.520000 146.995843-49.104000 145.123843-49.104000C143.251843-49.104000 141.667843-47.520000 141.667843-45.648000C141.667843-43.776000 143.251843-42.192000 145.123843-42.192000C146.995843-42.192000 148.507843-43.776000 148.507843-45.648000ZM147.427843 0L147.427843-34.056000L142.747843-34.056000L142.747843 0ZM177.874457 0L177.154457-3.960000C176.362457-3.816000 175.066457-3.600000 173.986457-3.600000C170.314457-3.600000 168.946457-5.112000 168.946457-8.568000L168.946457-30.024000L177.442457-30.024000L176.794457-34.056000L168.946457-34.056000L168.946457-46.656000L164.266457-45.864000L164.266457-34.056000L159.010457-34.056000L159.010457-30.024000L164.266457-30.024000L164.266457-7.776000C164.266457-1.512000 167.794457 0.576000 173.122457 0.576000C175.138457 0.576000 176.866457 0.288000 177.874457 0ZM216.313071-17.712000C216.313071-27.144000 211.849071-34.776000 202.561071-34.776000C194.209071-34.776000 187.873071-28.008000 187.873071-17.064000C187.873071-5.328000 194.281071 0.720000 203.209071 0.720000C208.465071 0.720000 212.857071-1.224000 216.241071-4.104000L215.521071-8.424000C211.993071-5.400000 208.033071-3.384000 203.497071-3.384000C196.657071-3.384000 192.769071-8.352000 192.625071-16.704000L216.313071-16.704000C216.313071-17.064000 216.313071-17.424000 216.313071-17.712000ZM211.417071-20.448000L192.841071-20.448000C193.777071-27.000000 197.233071-30.960000 202.561071-30.960000C208.033071-30.960000 210.913071-26.568000 211.417071-20.448000ZM246.399686-30.312000L245.607686-34.776000C239.991686-34.632000 236.031686-30.888000 233.511686-27.072000L232.431686-34.056000L228.903686-34.056000L228.903686 0L233.655686 0L233.655686-21.384000C235.959686-25.920000 240.783686-29.952000 246.399686-30.312000ZM281.670300 0L281.670300-24.264000C281.670300-31.248000 277.782300-34.776000 270.222300-34.776000C265.398300-34.776000 261.510300-33.552000 257.550300-31.824000L258.198300-27.576000C261.942300-29.376000 265.902300-30.600000 269.934300-30.600000C274.254300-30.600000 276.990300-28.656000 276.990300-24.048000L276.990300-21.816000C261.582300-20.304000 255.102300-16.560000 255.102300-8.568000C255.102300-2.520000 259.350300 0.720000 265.254300 0.720000C270.150300 0.720000 274.110300-1.584000 277.278300-4.536000L278.070300 0ZM276.990300-8.424000C273.678300-5.328000 269.646300-3.312000 265.974300-3.312000C262.374300-3.312000 259.854300-5.184000 259.854300-8.856000C259.854300-13.464000 263.598300-16.704000 276.990300-18.072000ZM311.324914 0L310.604914-3.960000C309.812914-3.816000 308.516914-3.600000 307.436914-3.600000C303.764914-3.600000 302.396914-5.112000 302.396914-8.568000L302.396914-30.024000L310.892914-30.024000L310.244914-34.056000L302.396914-34.056000L302.396914-46.656000L297.716914-45.864000L297.716914-34.056000L292.460914-34.056000L292.460914-30.024000L297.716914-30.024000L297.716914-7.776000C297.716914-1.512000 301.244914 0.576000 306.572914 0.576000C308.588914 0.576000 310.316914 0.288000 311.324914 0ZM349.763528-17.712000C349.763528-27.144000 345.299528-34.776000 336.011528-34.776000C327.659528-34.776000 321.323528-28.008000 321.323528-17.064000C321.323528-5.328000 327.731528 0.720000 336.659528 0.720000C341.915528 0.720000 346.307528-1.224000 349.691528-4.104000L348.971528-8.424000C345.443528-5.400000 341.483528-3.384000 336.947528-3.384000C330.107528-3.384000 326.219528-8.352000 326.075528-16.704000L349.763528-16.704000C349.763528-17.064000 349.763528-17.424000 349.763528-17.712000ZM344.867528-20.448000L326.291528-20.448000C327.227528-27.000000 330.683528-30.960000 336.011528-30.960000C341.483528-30.960000 344.363528-26.568000 344.867528-20.448000Z"/></g></g></svg></g></svg>