<?xml version="1.0" encoding="utf-8"?>
<svg viewBox="69.443 107.776 1126.764 170.048" xmlns="http://www.w3.org/2000/svg">
  <path fill-rule="nonzero" d="M -33.775 -24.509 L -38.527 -24.509 L -47.023 3.211 L -55.519 -24.653 L -59.695 -24.653 L -68.191 3.211 L -76.975 -25.085 L -81.583 -24.221 L -70.279 9.763 L -66.319 9.763 L -57.679 -18.173 L -49.111 9.763 L -45.079 9.763 Z M 4.016 -8.165 C 4.016 -17.597 -0.448 -25.229 -9.736 -25.229 C -18.088 -25.229 -24.424 -18.461 -24.424 -7.517 C -24.424 4.219 -18.016 10.267 -9.088 10.267 C -3.832 10.267 0.56 8.323 3.944 5.443 L 3.224 1.123 C -0.304 4.147 -4.264 6.163 -8.8 6.163 C -15.64 6.163 -19.528 1.195 -19.672 -7.157 L 4.016 -7.157 C 4.016 -7.517 4.016 -7.877 4.016 -8.165 Z M -0.88 -10.901 L -19.456 -10.901 C -18.52 -17.453 -15.064 -21.413 -9.736 -21.413 C -4.264 -21.413 -1.384 -17.021 -0.88 -10.901 Z M 45.55 -8.453 C 45.55 -19.829 39.286 -25.229 31.87 -25.229 C 27.118 -25.229 23.806 -22.709 21.358 -20.045 L 21.358 -42.149 L 16.606 -41.285 L 16.606 7.747 C 20.422 9.043 24.238 9.979 28.99 9.979 C 38.422 9.979 45.55 4.003 45.55 -8.453 Z M 40.726 -8.237 C 40.726 1.483 35.974 5.875 29.206 5.875 C 25.75 5.875 23.518 5.371 21.358 4.507 L 21.358 -15.077 C 24.382 -18.605 27.55 -20.981 31.366 -20.981 C 36.766 -20.981 40.726 -16.517 40.726 -8.237 Z M 64.477 -36.101 C 64.477 -37.973 62.965 -39.557 61.093 -39.557 C 59.221 -39.557 57.637 -37.973 57.637 -36.101 C 57.637 -34.229 59.221 -32.645 61.093 -32.645 C 62.965 -32.645 64.477 -34.229 64.477 -36.101 Z M 63.397 9.547 L 63.397 -24.509 L 58.717 -24.509 L 58.717 9.547 Z M 93.844 9.547 L 93.124 5.587 C 92.332 5.731 91.036 5.947 89.956 5.947 C 86.284 5.947 84.916 4.435 84.916 0.979 L 84.916 -20.477 L 93.412 -20.477 L 92.764 -24.509 L 84.916 -24.509 L 84.916 -37.109 L 80.236 -36.317 L 80.236 -24.509 L 74.98 -24.509 L 74.98 -20.477 L 80.236 -20.477 L 80.236 1.771 C 80.236 8.035 83.764 10.123 89.092 10.123 C 91.108 10.123 92.836 9.835 93.844 9.547 Z M 132.282 -8.165 C 132.282 -17.597 127.818 -25.229 118.53 -25.229 C 110.178 -25.229 103.842 -18.461 103.842 -7.517 C 103.842 4.219 110.25 10.267 119.178 10.267 C 124.434 10.267 128.826 8.323 132.21 5.443 L 131.49 1.123 C 127.962 4.147 124.002 6.163 119.466 6.163 C 112.626 6.163 108.738 1.195 108.594 -7.157 L 132.282 -7.157 C 132.282 -7.517 132.282 -7.877 132.282 -8.165 Z M 127.386 -10.901 L 108.81 -10.901 C 109.746 -17.453 113.202 -21.413 118.53 -21.413 C 124.002 -21.413 126.882 -17.021 127.386 -10.901 Z M 162.369 -20.765 L 161.577 -25.229 C 155.961 -25.085 152.001 -21.341 149.481 -17.525 L 148.401 -24.509 L 144.873 -24.509 L 144.873 9.547 L 149.625 9.547 L 149.625 -11.837 C 151.929 -16.373 156.753 -20.405 162.369 -20.765 Z M 197.639 9.547 L 197.639 -14.717 C 197.639 -21.701 193.751 -25.229 186.191 -25.229 C 181.367 -25.229 177.479 -24.005 173.519 -22.277 L 174.167 -18.029 C 177.911 -19.829 181.871 -21.053 185.903 -21.053 C 190.223 -21.053 192.959 -19.109 192.959 -14.501 L 192.959 -12.269 C 177.551 -10.757 171.071 -7.013 171.071 0.979 C 171.071 7.027 175.319 10.267 181.223 10.267 C 186.119 10.267 190.079 7.963 193.247 5.011 L 194.039 9.547 Z M 192.959 1.123 C 189.647 4.219 185.615 6.235 181.943 6.235 C 178.343 6.235 175.823 4.363 175.823 0.691 C 175.823 -3.917 179.567 -7.157 192.959 -8.525 Z M 227.294 9.547 L 226.574 5.587 C 225.782 5.731 224.486 5.947 223.406 5.947 C 219.734 5.947 218.366 4.435 218.366 0.979 L 218.366 -20.477 L 226.862 -20.477 L 226.214 -24.509 L 218.366 -24.509 L 218.366 -37.109 L 213.686 -36.317 L 213.686 -24.509 L 208.43 -24.509 L 208.43 -20.477 L 213.686 -20.477 L 213.686 1.771 C 213.686 8.035 217.214 10.123 222.542 10.123 C 224.558 10.123 226.286 9.835 227.294 9.547 Z M 265.733 -8.165 C 265.733 -17.597 261.269 -25.229 251.981 -25.229 C 243.629 -25.229 237.293 -18.461 237.293 -7.517 C 237.293 4.219 243.701 10.267 252.629 10.267 C 257.885 10.267 262.277 8.323 265.661 5.443 L 264.941 1.123 C 261.413 4.147 257.453 6.163 252.917 6.163 C 246.077 6.163 242.189 1.195 242.045 -7.157 L 265.733 -7.157 C 265.733 -7.517 265.733 -7.877 265.733 -8.165 Z M 260.837 -10.901 L 242.261 -10.901 C 243.197 -17.453 246.653 -21.413 251.981 -21.413 C 257.453 -21.413 260.333 -17.021 260.837 -10.901 Z" transform="matrix(3.244203, 0, 0, 3.244203, 334.114633, 244.51547)"/>
</svg>